<?xml version="1.0" standalone="no"?>
<!DOCTYPE svg PUBLIC "-//W3C//DTD SVG 20010904//EN"
 "http://www.w3.org/TR/2001/REC-SVG-20010904/DTD/svg10.dtd">
<svg version="1.0" xmlns="http://www.w3.org/2000/svg"
 width="524.000000pt" height="524.000000pt" viewBox="0 0 524.000000 524.000000"
 preserveAspectRatio="xMidYMid meet">
<metadata>
Created by potrace 1.14, written by Peter Selinger 2001-2017
</metadata>
<g transform="translate(0.000000,524.000000) scale(0.100000,-0.100000)"
fill="#000000" stroke="none">
<path d="M2439 5236 c-2 -2 -38 -6 -79 -10 -41 -3 -84 -8 -95 -10 -11 -2 -42
-7 -70 -11 -377 -54 -815 -241 -1140 -485 -225 -170 -414 -363 -572 -586 -109
-153 -283 -471 -283 -517 0 -7 -4 -17 -8 -22 -8 -9 -53 -123 -59 -150 -1 -5
-14 -48 -28 -95 -40 -131 -77 -320 -93 -469 -9 -87 -8 -461 1 -531 4 -30 10
-75 13 -100 3 -25 14 -88 25 -140 11 -52 22 -104 25 -116 24 -122 129 -405
205 -554 69 -136 233 -394 279 -440 3 -3 38 -44 78 -91 216 -258 527 -496 846
-649 192 -92 436 -175 600 -204 16 -3 52 -10 80 -15 136 -27 242 -35 446 -36
259 0 390 14 606 64 603 142 1136 491 1503 986 29 39 58 77 65 85 23 29 114
185 166 283 102 196 197 464 235 662 43 228 50 300 50 525 0 163 -6 268 -20
378 -25 182 -109 492 -174 637 -49 108 -130 270 -157 313 -19 29 -34 55 -34
57 0 10 -158 234 -180 255 -3 3 -23 28 -45 55 -50 64 -255 269 -320 320 -27
22 -52 43 -55 46 -3 3 -41 33 -86 66 -139 103 -323 206 -539 304 -67 30 -305
107 -383 124 -123 27 -216 44 -257 49 -27 4 -66 9 -85 12 -41 6 -455 15 -461
10z"/>
</g>
</svg>
